<svg width="77" height="77" viewBox="0 0 77 77" fill="none" xmlns="http://www.w3.org/2000/svg">
<path fill-rule="evenodd" clip-rule="evenodd" d="M38.4999 3.20825C19.0093 3.20825 3.20825 19.0093 3.20825 38.4999C3.20825 57.9905 19.0093 73.7916 38.4999 73.7916C57.9905 73.7916 73.7916 57.9905 73.7916 38.4999C73.7916 19.0093 57.9905 3.20825 38.4999 3.20825ZM41.7082 51.3332C41.7082 52.1842 41.3702 53.0002 40.7686 53.6019C40.1669 54.2036 39.3508 54.5416 38.4999 54.5416C37.649 54.5416 36.833 54.2036 36.2313 53.6019C35.6296 53.0002 35.2916 52.1842 35.2916 51.3332V41.7082H25.6666C24.8157 41.7082 23.9996 41.3702 23.3979 40.7686C22.7963 40.1669 22.4583 39.3508 22.4583 38.4999C22.4583 37.649 22.7963 36.833 23.3979 36.2313C23.9996 35.6296 24.8157 35.2916 25.6666 35.2916H35.2916V25.6666C35.2916 24.8157 35.6296 23.9996 36.2313 23.3979C36.833 22.7963 37.649 22.4583 38.4999 22.4583C39.3508 22.4583 40.1669 22.7963 40.7686 23.3979C41.3702 23.9996 41.7082 24.8157 41.7082 25.6666V35.2916H51.3332C52.1842 35.2916 53.0002 35.6296 53.6019 36.2313C54.2036 36.833 54.5416 37.649 54.5416 38.4999C54.5416 39.3508 54.2036 40.1669 53.6019 40.7686C53.0002 41.3702 52.1842 41.7082 51.3332 41.7082H41.7082V51.3332Z" fill="#3A8EFC"/>
</svg>
